<svg width="20" height="20" viewBox="0 0 20 20" fill="none" xmlns="http://www.w3.org/2000/svg">
<path fill-rule="evenodd" clip-rule="evenodd" d="M10 0C8.84941 0 7.91667 0.932739 7.91667 2.08333V7.91667H2.08333C0.93274 7.91667 0 8.84941 0 10C0 11.1506 0.932739 12.0833 2.08333 12.0833H7.91667V17.9167C7.91667 19.0673 8.84941 20 10 20C11.1506 20 12.0833 19.0673 12.0833 17.9167V12.0833H17.9167C19.0673 12.0833 20 11.1506 20 10C20 8.84941 19.0673 7.91667 17.9167 7.91667H12.0833V2.08333C12.0833 0.93274 11.1506 0 10 0Z" fill="white"/>
</svg>
