<svg width="142" height="140" viewBox="0 0 142 140" fill="none" xmlns="http://www.w3.org/2000/svg">
<g clip-path="url(#clip0_0_1750)">
<path opacity="0.5" fill-rule="evenodd" clip-rule="evenodd" d="M67.8447 13.7702C68.4925 13.5537 87.3769 7.80198 96.6531 4.97802C99.7082 4.04791 103.019 5.05114 105.046 7.51973L120.556 34.9456L64.6887 26.3939L67.8447 13.7702Z" fill="#78D7FF"/>
<path fill-rule="evenodd" clip-rule="evenodd" d="M71.8611 18.3603L115.496 10.6313C119.357 9.94693 123.187 11.9797 124.784 15.5612L131.534 30.6959L71.8611 33.8519V18.3603Z" fill="#78D7FF"/>
<path fill-rule="evenodd" clip-rule="evenodd" d="M0 11.3731V128.627C0 134.908 5.09219 140 11.3733 140H130.348C136.629 140 141.722 134.908 141.722 128.627V38.3404C141.722 32.0592 136.629 26.967 130.348 26.967H83.7711L69.9117 5.25427C67.8218 1.98135 64.2082 -0.00025177 60.3239 -0.00025177H11.3733C5.09219 -0.00025177 0 5.09194 0 11.3731" fill="url(#paint0_linear_0_1750)"/>
</g>
<defs>
<linearGradient id="paint0_linear_0_1750" x1="0.578762" y1="-0.00025177" x2="0.578762" y2="138.857" gradientUnits="userSpaceOnUse">
<stop stop-color="#26C0FF"/>
<stop offset="1" stop-color="#004EAA"/>
</linearGradient>
<clipPath id="clip0_0_1750">
<rect width="141.722" height="140" fill="white" transform="translate(0 -0.00025177)"/>
</clipPath>
</defs>
</svg>
