<svg width="48" height="48" viewBox="0 0 48 48" fill="none" xmlns="http://www.w3.org/2000/svg">
<circle cx="24" cy="24" r="24" fill="white"/>
<mask id="mask0_708_1058" style="mask-type:luminance" maskUnits="userSpaceOnUse" x="10" y="12" width="22" height="11">
<path fill-rule="evenodd" clip-rule="evenodd" d="M10 12H31.4286V22.2857H10V12Z" fill="white"/>
</mask>
<g mask="url(#mask0_708_1058)">
<path fill-rule="evenodd" clip-rule="evenodd" d="M26.0812 19.2459C27.2764 19.2418 28.2668 18.2933 28.2667 17.1531C28.2665 16.0157 27.2811 15.0479 26.0818 15.0599C24.7627 15.073 23.8882 16.0301 23.8913 17.159C23.8945 18.3003 24.8918 19.25 26.0812 19.2459ZM13.1781 17.1048C13.1579 18.2653 14.1275 19.2293 15.3313 19.2458C16.5388 19.2624 17.5316 18.3272 17.5428 17.1629C17.5537 16.0223 16.5951 15.0654 15.3796 15.0607C14.1299 15.056 13.1641 15.957 13.1781 17.1048ZM26.1693 12C26.5991 12.0857 27.0392 12.0954 27.4689 12.2013C29.4724 12.695 31.0597 14.4007 31.3668 16.3628C31.774 18.9652 30.127 21.3127 27.6633 22.0532C24.7581 22.9264 21.631 21.258 20.8818 18.4272C20.8203 18.1949 20.7839 17.9566 20.7348 17.716C20.6237 17.8099 20.6599 17.9399 20.6404 18.0533C20.1705 20.7816 17.325 22.6987 14.4738 22.2063C12.1983 21.8133 10.5226 20.2512 10.0811 18.1173C10.0553 17.9925 10.0872 17.8552 10 17.7427V16.6045C10.0498 16.5582 10.0481 16.4964 10.0561 16.4371C10.3313 14.4193 11.9233 12.7096 13.9772 12.1991C14.3966 12.0949 14.8265 12.0861 15.2456 12H15.4619C15.6324 12.0756 15.8167 12.0392 15.9941 12.0589C18.3108 12.3157 20.2452 14.0586 20.6387 16.2424C20.6592 16.3562 20.6234 16.4858 20.7338 16.5882C20.7447 16.5581 20.7569 16.5367 20.76 16.5141C21.047 14.4034 22.588 12.735 24.7344 12.1889C25.1369 12.0865 25.5517 12.09 25.953 12H26.1693Z" fill="#DA386E"/>
</g>
<path fill-rule="evenodd" clip-rule="evenodd" d="M21.1152 35.9982C18.9254 35.9983 16.7355 35.9982 14.5458 35.9983C13.6295 35.9983 12.863 35.6623 12.2865 34.9088C11.9335 34.4474 11.727 33.9157 11.7247 33.3304C11.7136 30.5072 11.7081 27.6839 11.7256 24.8609C11.7312 23.9662 12.1385 23.2579 12.8418 22.7335C12.957 22.6476 13.0483 22.6425 13.1785 22.704C15.2125 23.6658 17.1929 23.5461 19.1149 22.3685C19.2118 22.3091 19.3065 22.2862 19.4163 22.2864C20.5557 22.2886 21.6952 22.2892 22.8345 22.2857C22.9561 22.2853 23.0551 22.3223 23.1581 22.3855C25.0281 23.5315 26.9637 23.646 28.9494 22.7482C29.1938 22.6376 29.3538 22.6733 29.5412 22.8336C30.1901 23.3887 30.5547 24.1021 30.5597 24.9678C30.5753 27.7263 30.575 30.4851 30.5612 33.2437C30.5534 34.8033 29.335 35.9917 27.7647 35.9965C25.5482 36.0032 23.3316 35.9982 21.1152 35.9982Z" fill="#DA386E"/>
<path fill-rule="evenodd" clip-rule="evenodd" d="M38.2587 29.4964C38.2587 30.9425 38.2607 32.3885 38.2577 33.8346C38.2564 34.5249 37.9614 34.9495 37.376 35.0988C37.0627 35.1787 36.7527 35.1532 36.4664 34.9951C34.8646 34.1106 33.265 33.2224 31.66 32.3431C31.4906 32.2502 31.4275 32.1493 31.4285 31.9617C31.4368 30.3621 31.4364 28.7623 31.4287 27.1626C31.4279 26.9866 31.4824 26.891 31.6448 26.8023C33.2185 25.9437 34.7852 25.0734 36.3576 24.2125C37.0726 23.8209 37.7541 23.98 38.1528 24.6119C38.2712 24.7997 38.2858 25.0028 38.2856 25.2124C38.2846 26.6404 38.2851 28.0684 38.2851 29.4964C38.2763 29.4964 38.2675 29.4964 38.2587 29.4964Z" fill="#DA386E"/>
</svg>
