<svg width="48" height="48" viewBox="0 0 48 48" fill="none" xmlns="http://www.w3.org/2000/svg">
<circle cx="24" cy="24" r="24" fill="white"/>
<mask id="mask0_708_1059" style="mask-type:luminance" maskUnits="userSpaceOnUse" x="12" y="11" width="24" height="9">
<path fill-rule="evenodd" clip-rule="evenodd" d="M12 11H36V19.4413H12V11Z" fill="white"/>
</mask>
<g mask="url(#mask0_708_1059)">
<path fill-rule="evenodd" clip-rule="evenodd" d="M30.2297 11H30.8858C31.3148 11.1186 31.7291 11.2649 32.0804 11.5548C32.7358 12.0955 33.0995 12.8029 33.2742 13.6191C33.2989 13.7346 33.316 13.8083 33.4687 13.8176C34.992 13.9112 35.9918 14.9831 35.9937 16.5134C35.9948 17.3877 35.9848 18.2621 35.9998 19.1361C36.0039 19.3758 35.9461 19.4415 35.699 19.4413C27.7993 19.4341 19.8996 19.4353 12 19.4353V16.0612C12.0444 16.0193 12.0373 15.9616 12.047 15.9089C12.274 14.6714 13.4384 13.7419 14.6595 13.823C14.6589 13.892 14.6638 13.9622 14.6559 14.031C14.5494 14.9603 14.7115 15.8393 15.1966 16.6398C15.6989 17.4687 16.4114 17.9961 17.4172 18.026C17.8161 18.0379 18.1268 17.7293 18.138 17.346C18.149 16.9739 17.8658 16.6467 17.4798 16.629C17.0104 16.6075 16.6857 16.3646 16.4498 15.9922C16.0225 15.3171 15.9321 14.5838 16.1223 13.8119C16.942 13.8117 17.7619 13.8099 18.5817 13.8137C18.7104 13.8143 18.7649 13.8014 18.7136 13.6488C18.584 13.2642 18.4025 12.9159 18.084 12.6545C17.6883 12.3299 17.2113 12.3178 16.8164 12.6344C16.4369 12.9386 16.2131 13.3405 16.1304 13.8203C15.6374 13.8126 15.1443 13.7937 14.6516 13.8297C14.7002 13.7641 14.7018 13.6847 14.7192 13.6093C14.955 12.5869 15.4436 11.7449 16.4081 11.2408C16.6301 11.1247 16.8773 11.0874 17.1081 11H17.7642C18.1912 11.1191 18.6046 11.2636 18.9554 11.5518C19.6096 12.0895 19.9766 12.7938 20.148 13.6072C20.1825 13.7709 20.2392 13.823 20.4043 13.816C20.6756 13.8044 20.948 13.8195 21.2203 13.823C21.2197 13.8921 21.2246 13.9622 21.2168 14.031C21.1102 14.9603 21.2724 15.8393 21.7574 16.6398C22.2598 17.4687 22.9722 17.9961 23.978 18.026C24.377 18.0379 24.6876 17.7293 24.6989 17.346C24.7098 16.9739 24.4265 16.6467 24.0407 16.629C23.5713 16.6075 23.2465 16.3646 23.0107 15.9922C22.5832 15.3171 22.4929 14.5838 22.6831 13.8119C23.5028 13.8117 24.3227 13.8099 25.1425 13.8136C25.2712 13.8142 25.326 13.8015 25.2746 13.6488C25.1449 13.2641 24.9636 12.9159 24.6449 12.6545C24.2492 12.33 23.7721 12.3178 23.3773 12.6343C22.9978 12.9386 22.7739 13.3405 22.6911 13.8203C22.1982 13.8126 21.7051 13.7937 21.2124 13.8297C21.261 13.7642 21.2626 13.6847 21.28 13.6093C21.5159 12.5869 22.0044 11.745 22.9689 11.2408C23.1909 11.1247 23.438 11.0874 23.6689 11H24.325C24.7517 11.1191 25.1653 11.263 25.5155 11.5514C26.1752 12.0946 26.5433 12.805 26.7131 13.6276C26.7421 13.7682 26.7912 13.8201 26.9391 13.8156C27.2179 13.8073 27.4975 13.8219 27.7772 13.8266C27.8078 13.8952 27.7855 13.9647 27.7776 14.0334C27.6714 14.9624 27.8337 15.8413 28.3193 16.6414C28.822 17.4698 29.5345 17.9966 30.54 18.026C30.9385 18.0376 31.2491 17.728 31.2597 17.345C31.2701 16.9732 30.9863 16.6466 30.6007 16.6289C30.1314 16.6074 29.8069 16.3642 29.5713 15.9918C29.1441 15.3168 29.0537 14.5836 29.244 13.8119C30.0637 13.8117 30.8836 13.8099 31.7034 13.8136C31.832 13.8142 31.8869 13.8015 31.8354 13.6488C31.7058 13.2641 31.5244 12.9158 31.2057 12.6545C30.81 12.33 30.3329 12.3178 29.9381 12.6343C29.5586 12.9386 29.3347 13.3405 29.252 13.8203C28.7584 13.8138 28.2646 13.7911 27.7713 13.8315C27.8217 13.7668 27.8231 13.6872 27.8405 13.6118C28.0756 12.5883 28.5643 11.7459 29.5293 11.241C29.7514 11.1248 29.9987 11.0874 30.2297 11Z" fill="#1387D4"/>
</g>
<mask id="mask1_708_1059" style="mask-type:luminance" maskUnits="userSpaceOnUse" x="12" y="20" width="24" height="15">
<path fill-rule="evenodd" clip-rule="evenodd" d="M12 20.8362H35.9987V34.9957H12V20.8362Z" fill="white"/>
</mask>
<g mask="url(#mask1_708_1059)">
<path fill-rule="evenodd" clip-rule="evenodd" d="M28.0625 27.2497L26.6874 28.5901C26.5707 28.7038 26.5175 28.8676 26.5451 29.028L26.8697 30.9209C26.939 31.325 26.5148 31.6332 26.1519 31.4424L24.452 30.5487C24.3079 30.473 24.1357 30.473 23.9916 30.5487L22.2917 31.4424C21.9288 31.6332 21.5046 31.325 21.5739 30.9209L21.8985 29.028C21.9261 28.8676 21.8729 28.7038 21.7562 28.5901L20.381 27.2497C20.0874 26.9634 20.2495 26.4647 20.6552 26.4058L22.5557 26.1296C22.7168 26.1062 22.8561 26.005 22.9282 25.859L23.7781 24.1369C23.9596 23.7692 24.484 23.7692 24.6654 24.1369L25.5154 25.859C25.5874 26.005 25.7267 26.1062 25.8879 26.1296L27.7883 26.4058C28.1942 26.4647 28.3562 26.9634 28.0625 27.2497ZM35.9987 21.1043C35.9991 20.893 35.9486 20.836 35.7329 20.8362C27.822 20.8422 19.911 20.8413 12 20.8413V32.7444C12.0843 33.0099 12.1283 33.2875 12.2601 33.5385C12.7357 34.4443 13.4828 34.9283 14.5026 34.9906C14.6504 34.9997 14.7992 34.9938 14.9476 34.9938C21.0703 34.9939 27.1929 34.9944 33.3155 34.9934C34.613 34.9932 35.6275 34.2156 35.9241 32.9997C35.9817 32.7634 35.9949 32.5226 35.9948 32.2796C35.9935 28.5545 35.9921 24.8294 35.9987 21.1043Z" fill="#1387D4"/>
</g>
</svg>
